<?xml version="1.0" standalone="no"?>
<!DOCTYPE svg PUBLIC "-//W3C//DTD SVG 20010904//EN"
 "http://www.w3.org/TR/2001/REC-SVG-20010904/DTD/svg10.dtd">
<svg version="1.0" xmlns="http://www.w3.org/2000/svg"
 width="256.000000pt" height="256.000000pt" viewBox="0 0 256.000000 256.000000"
 preserveAspectRatio="xMidYMid meet">
<metadata>
Created by potrace 1.11, written by Peter Selinger 2001-2013
</metadata>
<g transform="translate(0.000000,256.000000) scale(0.100000,-0.100000)"
fill="#000000" stroke="none">
<path d="M1234 2410 c-257 -67 -469 -255 -563 -498 -39 -102 -51 -174 -51
-301 1 -238 83 -428 258 -593 88 -83 180 -138 302 -180 90 -31 102 -32 245
-33 176 0 234 12 370 79 92 46 135 77 135 100 0 18 -196 302 -214 309 -7 3
-29 -3 -47 -14 -195 -113 -383 -99 -518 40 -243 250 -89 691 248 709 96 5 164
-10 236 -53 32 -19 63 -35 71 -35 18 0 214 280 214 307 0 12 -10 32 -22 43
-36 34 -177 98 -263 120 -105 27 -299 27 -401 0z"/>
<path d="M374 527 c-2 -7 -3 -96 -2 -197 l3 -185 189 -3 c145 -2 191 1 198 10
13 22 10 362 -4 376 -18 18 -377 17 -384 -1z"/>
<path d="M1154 527 c-2 -7 -3 -96 -2 -197 l3 -185 189 -3 c145 -2 191 1 198
10 13 22 10 362 -4 376 -18 18 -377 17 -384 -1z"/>
<path d="M1934 527 c-2 -7 -3 -96 -2 -197 l3 -185 189 -3 c145 -2 191 1 198
10 13 22 10 362 -4 376 -18 18 -377 17 -384 -1z"/>
</g>
</svg>
