<svg xmlns="http://www.w3.org/2000/svg" viewBox="0 0 154.26 139.84"><defs><style>.cls-1{fill:#fff;}</style></defs><g id="Capa_2" data-name="Capa 2"><g id="Capa_1-2" data-name="Capa 1"><path class="cls-1" d="M151.6,65h-34V58.41a2.67,2.67,0,0,0-1.35-2.32L79.79,35.61V25.19H87v4a2.66,2.66,0,0,0,2.66,2.66h21.73A2.66,2.66,0,0,0,114,29.15a2.74,2.74,0,0,0-.15-.9l-2.19-6.2L113.91,16a2.65,2.65,0,0,0-1.6-3.4,2.47,2.47,0,0,0-.9-.16h-9.89V8.56A2.67,2.67,0,0,0,98.86,5.9H79.79V2.66a2.66,2.66,0,0,0-5.32,0v33L38,56.06a2.67,2.67,0,0,0-1.35,2.32V65h-34A2.66,2.66,0,0,0,0,67.61v69.57a2.66,2.66,0,0,0,2.66,2.66H151.6a2.66,2.66,0,0,0,2.66-2.66V67.63A2.67,2.67,0,0,0,151.6,65ZM101.52,22.53l-.11-.11V17.85h6.07l-1.09,3.4a2.65,2.65,0,0,0,0,1.84l1.25,3.4H92.32v-1.3h6.54A2.66,2.66,0,0,0,101.52,22.53ZM79.79,11.22H96.2v8.65H79.79ZM36.68,134.52H5.32V70.29H36.68Zm37.79,0h-14V104.15h14Zm19.28,0h-14V104.15h14Zm18.62,0H99.07v-33a2.66,2.66,0,0,0-2.66-2.66H57.85a2.66,2.66,0,0,0-2.66,2.66v33H41.89V60.05L77.13,40.21,112.26,60l.11,7.66Zm36.57,0H117.58V70.29h31.36Z"/><path class="cls-1" d="M77.13,48.35A11.15,11.15,0,1,0,88.27,59.47,11.17,11.17,0,0,0,77.13,48.35Zm0,17A5.83,5.83,0,1,1,83,59.52h0A5.81,5.81,0,0,1,77.13,65.32Z"/><rect class="cls-1" x="11.73" y="76.15" width="5.32" height="10.64"/><rect class="cls-1" x="24.84" y="76.15" width="5.32" height="10.64"/><rect class="cls-1" x="49.97" y="76.15" width="10.64" height="5.32"/><rect class="cls-1" x="71.81" y="76.15" width="10.64" height="5.32"/><rect class="cls-1" x="93.65" y="76.15" width="10.64" height="5.32"/><rect class="cls-1" x="49.97" y="88.54" width="10.64" height="5.32"/><rect class="cls-1" x="71.81" y="88.54" width="10.64" height="5.32"/><rect class="cls-1" x="93.65" y="88.54" width="10.64" height="5.32"/><rect class="cls-1" x="11.73" y="97.08" width="5.32" height="10.64"/><rect class="cls-1" x="24.84" y="97.08" width="5.32" height="10.64"/><rect class="cls-1" x="11.73" y="118.03" width="5.32" height="10.64"/><rect class="cls-1" x="24.84" y="118.03" width="5.32" height="10.64"/><rect class="cls-1" x="124.1" y="76.15" width="5.32" height="10.64"/><rect class="cls-1" x="137.21" y="76.15" width="5.32" height="10.64"/><rect class="cls-1" x="124.1" y="97.08" width="5.32" height="10.64"/><rect class="cls-1" x="137.21" y="97.08" width="5.32" height="10.64"/><rect class="cls-1" x="124.1" y="118.03" width="5.32" height="10.64"/><rect class="cls-1" x="137.21" y="118.03" width="5.32" height="10.64"/></g></g></svg>