<svg xmlns="http://www.w3.org/2000/svg" viewBox="0 0 154.54 133.95"><defs><style>.cls-1{fill:#fff;}</style></defs><g id="Capa_2" data-name="Capa 2"><g id="Capa_1-2" data-name="Capa 1"><path class="cls-1" d="M41.21,92.72h97.88a2.57,2.57,0,0,0,2.52-2l12.88-61.81a2.58,2.58,0,0,0-2-3.05,2.32,2.32,0,0,0-.53,0H28.71L23.11,2a2.57,2.57,0,0,0-2.5-2h-18a2.58,2.58,0,1,0,0,5.15h16l19.5,82.91a10.32,10.32,0,0,0-7.16,9.82V103a10.31,10.31,0,0,0,10.3,10.3h0a12.88,12.88,0,1,0,20.59,0h51.53a12.88,12.88,0,1,0,20.59,0h10.31a2.58,2.58,0,0,0,0-5.15h-103A5.16,5.16,0,0,1,36.06,103V97.88A5.16,5.16,0,0,1,41.21,92.72Zm2-5.15-2.42-10.3H55l1.28,10.3Zm55.8-25.75-.43,10.3h-17l-.43-10.3ZM81,56.66l-.43-10.3H99.7l-.43,10.3ZM76.52,72.12H59.58l-1.29-10.3h17.8Zm.21,5.15.43,10.3H61.51l-1.28-10.3Zm5.16,0H98.41L98,87.57H82.32Zm21.68,0h16.5l-1.29,10.3H103.14Zm.21-5.15.43-10.3H122l-1.29,10.3Zm23.41-10.3h15.17l-2.15,10.3h-14.3Zm.65-5.16,1.29-10.3h16.45l-2.15,10.3Zm-5.19,0H104.42l.43-10.3h19.08ZM105.07,41.21l.43-10.3h20.37l-1.29,10.3Zm-5.16,0H80.38L80,30.91h20.38Zm-24.68,0H55.72l-1.29-10.3H74.8Zm.21,5.15.43,10.3H57.65l-1.29-10.3Zm-23,10.3H36l-2.43-10.3H51.17Zm.64,5.16,1.29,10.3H39.61l-2.42-10.3ZM137,87.57H124l1.29-10.3h13.88Zm9.66-46.36H129.77l1.29-10.3H148.8ZM49.24,30.91l1.29,10.3H32.34l-2.42-10.3Zm10,90.15a7.73,7.73,0,1,1-7.73-7.73A7.73,7.73,0,0,1,59.24,121.06Zm72.12,0a7.73,7.73,0,1,1-7.73-7.73A7.73,7.73,0,0,1,131.36,121.06Z"/><circle class="cls-1" cx="51.51" cy="121.06" r="2.58"/><circle class="cls-1" cx="123.63" cy="121.06" r="2.58"/></g></g></svg>