<svg xmlns="http://www.w3.org/2000/svg" viewBox="0 0 170.22 130.66"><defs><style>.cls-1{fill:#fff;}</style></defs><g id="Capa_2" data-name="Capa 2"><g id="Capa_1-2" data-name="Capa 1"><path class="cls-1" d="M168.29,118.73a7.09,7.09,0,0,0-3.1-1.92V102c0-5.29-5.37-9.84-10.18-10.62l-23.77-3.89-2.77-.43a17.63,17.63,0,0,1-2.79-.53,4.1,4.1,0,0,1-.49-.57l-.06-.07-18-21.23-.09-.1c-2.86-3-6.22-4.21-12-4.21h-4.5V57.72a6,6,0,0,0-5.93-6h0V49.61H103.5c4.28,0,14.09,0,20.32-9.49h38.9a7.52,7.52,0,0,0,7.49-7.54v-25A7.52,7.52,0,0,0,162.72,0H81.63a2.52,2.52,0,0,0,0,5h81.09a2.49,2.49,0,0,1,2.47,2.51v25a2.5,2.5,0,0,1-2.47,2.52H7.49A2.5,2.5,0,0,1,5,32.58v-25A2.5,2.5,0,0,1,7.49,5H70.13a2.51,2.51,0,1,0,0-5H7.49A7.52,7.52,0,0,0,0,7.54v25a7.52,7.52,0,0,0,7.49,7.54H28.91c6.23,9.49,16,9.49,20.32,9.49H68.1v2.15H66.85a6,6,0,0,0-5.93,6v2.67H56.2a13.09,13.09,0,0,0-10.64,4.7l0,0L38.93,73a2.51,2.51,0,0,0,3.86,3.22l6.59-7.89a8.14,8.14,0,0,1,6.82-2.94H95.07c4.88,0,6.7.9,8.3,2.58l17.9,21.15c1.74,2.2,2.85,2.37,6.45,2.91l2.7.43,23.78,3.9c2.37.38,5.19,2.51,5.83,4.74h-7.4a5.86,5.86,0,0,0-5.84,5.87v2a5.86,5.86,0,0,0,5.84,5.87h7.53v1.74l-21.28,0A20.14,20.14,0,0,0,124.7,111a20.4,20.4,0,0,0-13.29,5l-50.85,0a20.63,20.63,0,0,0-27.55.47l-21.31,0v-4.91h7.53a5.86,5.86,0,0,0,5.84-5.87v-2a5.86,5.86,0,0,0-5.84-5.87H11.7v-2.2a.93.93,0,0,1,.91-.94h9.15c5.64,0,8.6-3.6,10.55-6,.13-.16.59-.74,1.53-2,.57-.71,1.33-1.7,1.45-1.83a2.51,2.51,0,0,0-3.88-3.2l-1.53,1.94c-.56.72-1.33,1.71-1.45,1.85-2.06,2.51-3.63,4.16-6.67,4.16H12.61a6,6,0,0,0-5.93,6v21.19a7,7,0,0,0-5,6.82,6.79,6.79,0,0,0,7,6.88h14c4.78,0,8.23,0,10.61-5.67a14.4,14.4,0,0,1,2.52-4,2.52,2.52,0,0,0,.39-.41,15.55,15.55,0,0,1,21.52-.33,3.14,3.14,0,0,0,.32.31,15.53,15.53,0,0,1,2.91,4.1c3,6.12,7.09,6.06,9.8,6h.7l28.21,0h1.81c4.22,0,7.29-.24,9-4.75a15.45,15.45,0,0,1,25-5.61,2.48,2.48,0,0,0,.92,1,14.51,14.51,0,0,1,2.28,3.7c2.49,5.76,6.38,5.72,10.15,5.67h14.44a6.82,6.82,0,0,0,7-6.95A7.24,7.24,0,0,0,168.29,118.73ZM103.5,44.59H84.62V40.12h32.74C112.77,44.59,106.93,44.59,103.5,44.59Zm-54.27,0c-3.43,0-9.26,0-13.86-4.47H68.1v4.47Zm23.9-4.47H79.6V51.76H73.13Zm-7.19,17.6a.94.94,0,0,1,.91-.93H84.64a.93.93,0,0,1,.9.93v2.67H66V57.72ZM19.23,103a.85.85,0,0,1,.82.85v2a.84.84,0,0,1-.82.84H11.7V103Zm3.38,22.65h-14a1.75,1.75,0,0,1-2-1.86,2.18,2.18,0,0,1,.56-1.47,2.64,2.64,0,0,1,2-.68h0l20.07,0c-.24.48-.47,1-.68,1.46C27.5,125.6,27.12,125.59,22.61,125.6Zm78,0H71.39c-.26,0-.51,0-.77,0-2.41,0-3.62,0-5.22-3.23-.23-.45-.46-.89-.72-1.32l42.53,0a20.52,20.52,0,0,0-1.5,3.09C105.18,125.54,105.14,125.65,100.63,125.64Zm52-15.81a.84.84,0,0,1-.81-.85v-2a.83.83,0,0,1,.81-.84h7.53v3.67Zm10.6,15.79h-14.5c-3.49,0-4.31,0-5.47-2.63-.2-.46-.41-.91-.64-1.35l20.2,0a2.32,2.32,0,0,0,.59-.07,2.17,2.17,0,0,1,1.21.63,2.23,2.23,0,0,1,.57,1.52A1.8,1.8,0,0,1,163.23,125.62Z"/><path class="cls-1" d="M46.09,20.14a8.32,8.32,0,1,0,8.32-8.38A8.36,8.36,0,0,0,46.09,20.14Zm11.62,0a3.3,3.3,0,1,1-3.3-3.35A3.34,3.34,0,0,1,57.71,20.14Z"/><path class="cls-1" d="M84.82,28.44a8.38,8.38,0,1,0-8.33-8.38A8.37,8.37,0,0,0,84.82,28.44Zm0-11.73a3.35,3.35,0,1,1-3.3,3.35A3.33,3.33,0,0,1,84.82,16.71Z"/><path class="cls-1" d="M123.63,20.06a8.33,8.33,0,1,0-8.32,8.38A8.35,8.35,0,0,0,123.63,20.06Zm-11.62,0a3.3,3.3,0,1,1,3.3,3.35A3.33,3.33,0,0,1,112,20.06Z"/><path class="cls-1" d="M154.05,20a8.33,8.33,0,1,0-8.33,8.38A8.37,8.37,0,0,0,154.05,20Zm-11.63,0a3.3,3.3,0,1,1,3.3,3.36A3.33,3.33,0,0,1,142.42,20Z"/><path class="cls-1" d="M15.68,20.22A8.33,8.33,0,1,0,24,11.85,8.36,8.36,0,0,0,15.68,20.22Zm11.63,0A3.31,3.31,0,1,1,24,16.87,3.34,3.34,0,0,1,27.31,20.22Z"/><path class="cls-1" d="M76.94,99.13a2.51,2.51,0,1,0,0,5h9a2.51,2.51,0,1,0,0-5Z"/><path class="cls-1" d="M111.86,91.6c.42-.83.87-2.55-.78-4.75l-8.88-12c-.88-1.17-3.21-4.3-7.21-4.3H58.52a9.92,9.92,0,0,0-7.18,3.91L43.05,85.62c-2,2.64-1.44,4.69-.95,5.68a5.73,5.73,0,0,0,5.15,2.85H105.8C107,94.15,110.59,94.15,111.86,91.6ZM98.16,77.89l8.33,11.21-.69,0H79.27V75.61H95C96,75.61,97,76.29,98.16,77.89ZM46.8,89.05a4.21,4.21,0,0,1,.28-.43L55.37,77.5a5.25,5.25,0,0,1,3.15-1.89H74.24V89.12h-27A1.57,1.57,0,0,1,46.8,89.05Z"/></g></g></svg>