<svg xmlns="http://www.w3.org/2000/svg" viewBox="0 0 150.92 141.16"><defs><style>.cls-1{fill:#fff;}</style></defs><g id="Capa_2" data-name="Capa 2"><g id="Capa_1-2" data-name="Capa 1"><path class="cls-1" d="M95,53.26a7.1,7.1,0,1,0-7.1-7.1A7.11,7.11,0,0,0,95,53.26Zm0-9.77a2.67,2.67,0,1,1-2.68,2.67A2.68,2.68,0,0,1,95,43.49Z"/><path class="cls-1" d="M26.63,65.46a2.21,2.21,0,0,0-2.21,2.21V80.34a2.21,2.21,0,0,0,2.21,2.22H75.46a2.21,2.21,0,0,0,2.21-2.22V51a2.21,2.21,0,0,0-2.21-2.21H26.63A2.21,2.21,0,0,0,24.42,51v7.79a2.21,2.21,0,0,0,4.42,0V53.26H73.25V78.13H28.84V67.67A2.21,2.21,0,0,0,26.63,65.46Z"/><path class="cls-1" d="M90.11,82.56h9.77a2.22,2.22,0,0,0,0-4.43H90.11a2.22,2.22,0,0,0,0,4.43Z"/><path class="cls-1" d="M146.27,39.07h-7.55l-.15,0h-.06l-.18,0h0l-.18.07h0l-.16.07,0,0-.14.08,0,0-.13.1-.05,0-.16.14-14,14h-6.64V41.28a12,12,0,0,0-12-12H87.44V19.07h5.34v.23A4.66,4.66,0,0,0,97.44,24h22a12,12,0,0,0,12-12.32A12.15,12.15,0,0,0,119.21,0H97.44a4.66,4.66,0,0,0-4.66,4.65v.23h-5.7A7.1,7.1,0,0,0,80.35,0H48.09a7.05,7.05,0,0,0-6.35,3.92L38,11.51a7.05,7.05,0,0,0-4.66-1.74H12a12,12,0,0,0-12,12V90.11a12,12,0,0,0,12,12h4.37a2.21,2.21,0,0,0,0-4.42H12a7.57,7.57,0,0,1-7.56-7.56V33.72H104.76a7.57,7.57,0,0,1,7.56,7.56V90.11a7.57,7.57,0,0,1-7.56,7.56H25.19a2.21,2.21,0,1,0,0,4.42h9v5.2a4.58,4.58,0,0,0,3.81,4.5l-11,26.3a2.22,2.22,0,0,0,2,3.07H41.28a2.21,2.21,0,0,0,2-1.36l8-19.1V139a2.21,2.21,0,0,0,2.21,2.21h9.76A2.21,2.21,0,0,0,65.46,139V120.7l8,19.1a2.21,2.21,0,0,0,2,1.36H87.67a2.21,2.21,0,0,0,2-3.06l-11-26.31a4.58,4.58,0,0,0,3.81-4.5v-5.2h22.2a12,12,0,0,0,12-12V77.67h6.64l14,14c.05.06.11.1.16.15l.05,0,.13.1,0,0,.14.09,0,0,.16.07h0l.18.07h0l.18,0h.06l.15,0h7.55a4.65,4.65,0,0,0,4.65-4.65V43.72a4.65,4.65,0,0,0-4.65-4.65ZM107,4.42h12.24A7.73,7.73,0,0,1,127,11.76a7.55,7.55,0,0,1-7.56,7.77H107V4.42ZM97.21,16.86V4.65a.23.23,0,0,1,.23-.23h5.11V19.53H97.44a.23.23,0,0,1-.23-.23ZM87.44,9.3h5.34v5.35H87.44Zm-83,20V21.74A7.56,7.56,0,0,1,12,14.19H33.29a2.64,2.64,0,0,1,2.38,1.47l6.9,13.64Zm68.83,0H47.52l-1.31-2.59,6.26-12.52H73.25ZM83,16.86V29.3H77.67V12a2.21,2.21,0,0,0-2.21-2.21H51.11a2.2,2.2,0,0,0-2,1.22l-5.4,10.8-3-5.94,5-9.95a2.65,2.65,0,0,1,2.39-1.48H80.34A2.68,2.68,0,0,1,83,7.09v9.77ZM39.8,136.73H32.39l10.36-24.87h7.42Zm21.24,0H55.7V111.86H61Zm2.21-29.3H38.75a.14.14,0,0,1-.14-.14v-5.2H78.13v5.2a.14.14,0,0,1-.14.14H63.25Zm21.1,29.3H76.94L66.57,111.86H74Zm37.73-63.48h-5.34V58.14h5.34Zm14.65,11.52L126.51,74.55V56.84l10.22-10.23Zm9.77,2.9a.23.23,0,0,1-.23.23h-5.11V43.49h5.11a.23.23,0,0,1,.23.23Z"/><path class="cls-1" d="M41.05,66.92V64.47a2.21,2.21,0,1,0-4.42,0v2.45a2.21,2.21,0,1,0,4.42,0Z"/><path class="cls-1" d="M53.26,66.92V64.47a2.22,2.22,0,0,0-4.43,0v2.45a2.22,2.22,0,0,0,4.43,0Z"/><path class="cls-1" d="M65.46,66.92V64.47a2.21,2.21,0,1,0-4.42,0v2.45a2.21,2.21,0,1,0,4.42,0Z"/></g></g></svg>