<svg xmlns="http://www.w3.org/2000/svg" viewBox="0 0 150.92 150.92"><defs><style>.cls-1{fill:#fff;}</style></defs><g id="Capa_2" data-name="Capa 2"><g id="Capa_1-2" data-name="Capa 1"><path class="cls-1" d="M127,77.67h12.75a5.81,5.81,0,1,0,0-4.42H127V53.92h12.75a5.82,5.82,0,1,0,0-4.43H127V26.14a2.21,2.21,0,0,0-2.21-2.21h-9.49a2.21,2.21,0,0,0,0,4.42h7.28V51.7h0V75.46h0V99.22h0v23.34H28.35V99.22h0V75.46h0V51.7h0V28.35h78.23a2.21,2.21,0,1,0,0-4.42h-5.15V11.18a5.81,5.81,0,1,0-4.42,0V23.93H77.68V11.18a5.82,5.82,0,1,0-4.43,0V23.93H53.92V11.18a5.82,5.82,0,1,0-4.42,0V23.93H26.14a2.21,2.21,0,0,0-2.21,2.21V49.49H11.18a5.81,5.81,0,1,0,0,4.42H23.93V73.25H11.18a5.81,5.81,0,1,0,0,4.42H23.93V97H11.18a5.81,5.81,0,1,0,0,4.42H23.93v23.35A2.21,2.21,0,0,0,26.14,127H49.49v12.75a5.81,5.81,0,1,0,4.42,0V127H73.25v12.75a5.81,5.81,0,1,0,4.42,0V127H97v12.75a5.81,5.81,0,1,0,4.42,0V127h23.35a2.21,2.21,0,0,0,2.21-2.21V101.43h12.75a5.81,5.81,0,1,0,0-4.42H127V77.67Zm18.12-3.6a1.39,1.39,0,1,1-1.38,1.39A1.39,1.39,0,0,1,145.11,74.07Zm0-23.76a1.39,1.39,0,1,1-1.38,1.39A1.39,1.39,0,0,1,145.11,50.31ZM99.22,4.42a1.39,1.39,0,0,1,0,2.78h0a1.39,1.39,0,0,1,0-2.78Zm-23.76,0a1.39,1.39,0,0,1,0,2.78h0a1.39,1.39,0,0,1,0-2.78Zm-23.76,0a1.39,1.39,0,0,1,0,2.78h0a1.39,1.39,0,0,1,0-2.78ZM5.81,53.09A1.39,1.39,0,1,1,7.2,51.7,1.39,1.39,0,0,1,5.81,53.09Zm0,23.76A1.39,1.39,0,1,1,7.2,75.46,1.39,1.39,0,0,1,5.81,76.85Zm0,23.76A1.39,1.39,0,1,1,7.2,99.22,1.39,1.39,0,0,1,5.81,100.61ZM51.7,146.5a1.39,1.39,0,0,1,0-2.77h0a1.39,1.39,0,1,1,0,2.77Zm23.76,0a1.39,1.39,0,0,1,0-2.77h0a1.39,1.39,0,1,1,0,2.77Zm23.76,0a1.39,1.39,0,0,1,0-2.77h0a1.39,1.39,0,1,1,0,2.77Zm45.89-48.67a1.39,1.39,0,1,1-1.38,1.39A1.39,1.39,0,0,1,145.11,97.83Z"/><path class="cls-1" d="M117.49,31.23h-84a2.21,2.21,0,0,0-2.21,2.21v61.4a2.21,2.21,0,0,0,4.42,0V35.65h79.62v79.62H35.65V103.55a2.21,2.21,0,0,0-4.42,0v13.94a2.21,2.21,0,0,0,2.21,2.21h84.05a2.21,2.21,0,0,0,2.21-2.21v-84A2.21,2.21,0,0,0,117.49,31.23Z"/><path class="cls-1" d="M90.59,58.12H60.33a2.21,2.21,0,0,0-2.21,2.22V90.59a2.21,2.21,0,0,0,2.21,2.21H72a2.21,2.21,0,0,0,0-4.42H62.55V62.55H88.38V88.38H80.7a2.21,2.21,0,0,0,0,4.42h9.89a2.21,2.21,0,0,0,2.21-2.21V60.34A2.21,2.21,0,0,0,90.59,58.12Z"/><path class="cls-1" d="M48.1,42.33H44.54a2.21,2.21,0,0,0-2.21,2.22V48.1a2.2,2.2,0,0,0,2.21,2.21H48.1a2.2,2.2,0,0,0,2.21-2.21V44.55A2.21,2.21,0,0,0,48.1,42.33Z"/><path class="cls-1" d="M59.76,42.33H56.2A2.21,2.21,0,0,0,54,44.55V48.1a2.2,2.2,0,0,0,2.21,2.21h3.56A2.2,2.2,0,0,0,62,48.1V44.55A2.21,2.21,0,0,0,59.76,42.33Z"/><path class="cls-1" d="M71.41,42.33H67.85a2.21,2.21,0,0,0-2.21,2.22V48.1a2.2,2.2,0,0,0,2.21,2.21h3.56a2.2,2.2,0,0,0,2.21-2.21V44.55A2.21,2.21,0,0,0,71.41,42.33Z"/><path class="cls-1" d="M83.07,42.33H79.51a2.21,2.21,0,0,0-2.21,2.22V48.1a2.2,2.2,0,0,0,2.21,2.21h3.56a2.2,2.2,0,0,0,2.21-2.21V44.55A2.21,2.21,0,0,0,83.07,42.33Z"/><path class="cls-1" d="M94.72,42.33H91.16A2.21,2.21,0,0,0,89,44.55V48.1a2.2,2.2,0,0,0,2.21,2.21h3.56a2.2,2.2,0,0,0,2.21-2.21V44.55A2.21,2.21,0,0,0,94.72,42.33Z"/><path class="cls-1" d="M106.38,42.33h-3.56a2.21,2.21,0,0,0-2.21,2.22V48.1a2.2,2.2,0,0,0,2.21,2.21h3.56a2.2,2.2,0,0,0,2.21-2.21V44.55A2.21,2.21,0,0,0,106.38,42.33Z"/><path class="cls-1" d="M48.1,100.61H44.54a2.21,2.21,0,0,0-2.21,2.21v3.56a2.21,2.21,0,0,0,2.21,2.21H48.1a2.21,2.21,0,0,0,2.21-2.21v-3.56A2.21,2.21,0,0,0,48.1,100.61Z"/><path class="cls-1" d="M59.76,100.61H56.2A2.21,2.21,0,0,0,54,102.82v3.56a2.21,2.21,0,0,0,2.21,2.21h3.56A2.21,2.21,0,0,0,62,106.38v-3.56A2.21,2.21,0,0,0,59.76,100.61Z"/><path class="cls-1" d="M71.41,100.61H67.85a2.21,2.21,0,0,0-2.21,2.21v3.56a2.21,2.21,0,0,0,2.21,2.21h3.56a2.21,2.21,0,0,0,2.21-2.21v-3.56A2.21,2.21,0,0,0,71.41,100.61Z"/><path class="cls-1" d="M83.07,100.61H79.51a2.21,2.21,0,0,0-2.21,2.21v3.56a2.21,2.21,0,0,0,2.21,2.21h3.56a2.21,2.21,0,0,0,2.21-2.21v-3.56A2.21,2.21,0,0,0,83.07,100.61Z"/><path class="cls-1" d="M94.72,100.61H91.16A2.21,2.21,0,0,0,89,102.82v3.56a2.21,2.21,0,0,0,2.21,2.21h3.56a2.21,2.21,0,0,0,2.21-2.21v-3.56A2.21,2.21,0,0,0,94.72,100.61Z"/><path class="cls-1" d="M106.38,100.61h-3.56a2.21,2.21,0,0,0-2.21,2.21v3.56a2.21,2.21,0,0,0,2.21,2.21h3.56a2.21,2.21,0,0,0,2.21-2.21v-3.56A2.21,2.21,0,0,0,106.38,100.61Z"/><path class="cls-1" d="M48.1,54H44.54a2.21,2.21,0,0,0-2.21,2.21v3.56A2.21,2.21,0,0,0,44.54,62H48.1a2.21,2.21,0,0,0,2.21-2.21V56.2A2.21,2.21,0,0,0,48.1,54Z"/><path class="cls-1" d="M48.1,65.64H44.54a2.21,2.21,0,0,0-2.21,2.21v3.56a2.21,2.21,0,0,0,2.21,2.21H48.1a2.21,2.21,0,0,0,2.21-2.21V67.85A2.21,2.21,0,0,0,48.1,65.64Z"/><path class="cls-1" d="M48.1,77.3H44.54a2.21,2.21,0,0,0-2.21,2.21v3.56a2.21,2.21,0,0,0,2.21,2.21H48.1a2.21,2.21,0,0,0,2.21-2.21V79.51A2.21,2.21,0,0,0,48.1,77.3Z"/><path class="cls-1" d="M48.1,89H44.54a2.21,2.21,0,0,0-2.21,2.21v3.56a2.21,2.21,0,0,0,2.21,2.21H48.1a2.21,2.21,0,0,0,2.21-2.21V91.16A2.21,2.21,0,0,0,48.1,89Z"/><path class="cls-1" d="M106.38,54h-3.56a2.21,2.21,0,0,0-2.21,2.21v3.56A2.21,2.21,0,0,0,102.82,62h3.56a2.21,2.21,0,0,0,2.21-2.21V56.2A2.21,2.21,0,0,0,106.38,54Z"/><path class="cls-1" d="M106.38,65.64h-3.56a2.21,2.21,0,0,0-2.21,2.21v3.56a2.21,2.21,0,0,0,2.21,2.21h3.56a2.21,2.21,0,0,0,2.21-2.21V67.85A2.21,2.21,0,0,0,106.38,65.64Z"/><path class="cls-1" d="M106.38,77.3h-3.56a2.21,2.21,0,0,0-2.21,2.21v3.56a2.21,2.21,0,0,0,2.21,2.21h3.56a2.21,2.21,0,0,0,2.21-2.21V79.51A2.21,2.21,0,0,0,106.38,77.3Z"/><path class="cls-1" d="M106.38,89h-3.56a2.21,2.21,0,0,0-2.21,2.21v3.56a2.21,2.21,0,0,0,2.21,2.21h3.56a2.21,2.21,0,0,0,2.21-2.21V91.16A2.21,2.21,0,0,0,106.38,89Z"/></g></g></svg>