<svg xmlns="http://www.w3.org/2000/svg" viewBox="0 0 144.78 147.2"><defs><style>.cls-1{fill:#fff;}</style></defs><g id="Capa_2" data-name="Capa 2"><g id="Capa_1-2" data-name="Capa 1"><g id="Outline"><rect class="cls-1" x="33.78" y="132.72" width="4.83" height="4.83"/><path class="cls-1" d="M89.28,103.76h-41V67.57a2.41,2.41,0,0,0-2.41-2.42H2.41A2.41,2.41,0,0,0,0,67.57v77.21a2.41,2.41,0,0,0,2.41,2.42H89.28a2.42,2.42,0,0,0,2.42-2.42V106.17A2.41,2.41,0,0,0,89.28,103.76Zm-26.54,4.83h9.65v9.65H62.74ZM19.3,70H29v9.65H19.3ZM4.83,70h9.65V82a2.41,2.41,0,0,0,2.41,2.42H31.37A2.41,2.41,0,0,0,33.78,82V70h9.66v33.78H4.83ZM19.3,108.59H29v9.65H19.3Zm-14.47,0h9.65v12.06a2.41,2.41,0,0,0,2.41,2.42H31.37a2.41,2.41,0,0,0,2.41-2.42V108.59h9.66v33.78H4.83Zm82,33.78H48.26V108.59h9.65v12.06a2.42,2.42,0,0,0,2.42,2.42H74.8a2.42,2.42,0,0,0,2.42-2.42V108.59h9.65Z"/><rect class="cls-1" x="77.22" y="132.72" width="4.83" height="4.83"/><rect class="cls-1" x="33.78" y="94.11" width="4.83" height="4.83"/><path class="cls-1" d="M141.8,31.3a2.22,2.22,0,0,0,.57.07,2.42,2.42,0,0,0,2.09-1.2,2.47,2.47,0,0,0,.32-1.27V19.3A2.41,2.41,0,0,0,142.94,17L73,.07a2.4,2.4,0,0,0-1.13,0L1.85,17A2.41,2.41,0,0,0,0,19.3v9.59a2.56,2.56,0,0,0,.41,1.42A2.42,2.42,0,0,0,3,31.3l4.26-1V60.33h4.83V29.11L72.39,14.55l60.33,14.56V142.37H118.24V48.26a2.41,2.41,0,0,0-2.41-2.41H29a2.41,2.41,0,0,0-2.42,2.41v9.65A2.42,2.42,0,0,0,29,60.33h84.45v4.82H53.09V70h60.32V74.8H53.09v4.83h60.32v4.83H53.09v4.82h60.32v53.09H96.52v4.83h48.26v-4.83h-7.24V30.27ZM31.37,55.5V50.67h82V55.5Zm41-45.85a2.1,2.1,0,0,0-.56.07l-67,16.17V21.2L72.39,4.9,140,21.2v4.69L73,9.72A2.22,2.22,0,0,0,72.39,9.65Z"/><path class="cls-1" d="M77.22,38.61a7.24,7.24,0,0,0,0-14.48H67.57a7.24,7.24,0,1,0,0,14.48ZM65.15,31.37A2.41,2.41,0,0,1,67.57,29h9.65a2.41,2.41,0,0,1,0,4.82H67.57A2.41,2.41,0,0,1,65.15,31.37Z"/></g></g></g></svg>