<svg xmlns="http://www.w3.org/2000/svg" viewBox="0 0 167.27 167.27"><defs><style>.cls-1{fill:#fff;}</style></defs><g id="Capa_2" data-name="Capa 2"><g id="Capa_1-2" data-name="Capa 1"><path class="cls-1" d="M164.82,162.37h-8V128.69a7.68,7.68,0,0,0-5.06-13.46h-16l-2.47-39.6a2.45,2.45,0,0,0-2.45-2.3H120.3a2.45,2.45,0,0,0-2.45,2.3l-2.47,39.6h-5.87L107,75.63a2.44,2.44,0,0,0-2.44-2.3H94.11a2.46,2.46,0,0,0-2.45,2.3l-2.47,39.6H83.32l-2.48-39.6a2.44,2.44,0,0,0-2.44-2.3H67.92a2.44,2.44,0,0,0-2.44,2.3L63,115.23H56.18L54.66,46.92a2.45,2.45,0,0,0-2.45-2.4H36.5a2.44,2.44,0,0,0-2.45,2.4L32.3,125.71H12.93a7.68,7.68,0,0,0-5.07,13.46v23.2H2.45a2.45,2.45,0,0,0,0,4.9H164.82a2.45,2.45,0,1,0,0-4.9ZM32.06,136.18H23.4a2.45,2.45,0,1,0,0,4.9H32l-.47,21.29H12.76V141.08h.17a2.45,2.45,0,0,0,0-4.9,2.79,2.79,0,1,1,0-5.57H32.19ZM122.6,78.23h5.87l2.31,37H120.29Zm-26.19,0h5.87l2.32,37H94.1Zm-26.19,0H76.1l2.31,37H67.91ZM41.9,162.37H36.38L38.89,49.42H49.81l1.46,65.81H47a7.68,7.68,0,0,0-5.07,13.46ZM151.73,125.7h-5.24a2.46,2.46,0,0,0,0,4.91h5.4v31.77H46.8V130.6H136a2.46,2.46,0,0,0,0-4.91H47a2.79,2.79,0,1,1,0-5.57H151.72a2.79,2.79,0,0,1,0,5.57Z"/><path class="cls-1" d="M136,0a31,31,0,0,0-20,7.3,23.32,23.32,0,0,0-30.39,2,18.15,18.15,0,0,0-23.81,9.41,10.94,10.94,0,0,0-3-.42,11.59,11.59,0,0,0-11,7.9,7.5,7.5,0,0,0-.82,0,7.7,7.7,0,0,0-7.69,7.69,2.45,2.45,0,0,0,4.9,0,2.76,2.76,0,0,1,4.21-2.38,2.45,2.45,0,0,0,3.7-2,6.71,6.71,0,0,1,6.67-6.31,6.52,6.52,0,0,1,3.26.9,2.48,2.48,0,0,0,2.16.12,2.45,2.45,0,0,0,1.41-1.63,13.23,13.23,0,0,1,19.32-8.14A2.46,2.46,0,0,0,88,14a18.44,18.44,0,0,1,26.42-1.61,2.45,2.45,0,0,0,3.35-.05,26.33,26.33,0,1,1-4.88,31.58,2.44,2.44,0,0,0-3.17-1.06A18.24,18.24,0,0,1,102,44.52a18.48,18.48,0,0,1-14-6.43,2.46,2.46,0,0,0-3.06-.53,13.21,13.21,0,0,1-17-3.48,2.5,2.5,0,0,0-1.94-1h0a2.47,2.47,0,0,0-1.93.94,6.63,6.63,0,0,1-5.25,2.6,2.45,2.45,0,1,0,0,4.9,11.4,11.4,0,0,0,7.07-2.44A18,18,0,0,0,78.4,44.18a18.31,18.31,0,0,0,7.18-1.48A23.36,23.36,0,0,0,102,49.42a23,23,0,0,0,7.71-1.32A31.26,31.26,0,1,0,136,0Z"/><path class="cls-1" d="M62.68,136.18a2.45,2.45,0,0,0-2.45,2.45v5.24a2.45,2.45,0,1,0,4.9,0v-5.24A2.45,2.45,0,0,0,62.68,136.18Z"/><path class="cls-1" d="M73.16,136.18a2.45,2.45,0,0,0-2.45,2.45v5.24a2.45,2.45,0,0,0,4.9,0v-5.24A2.45,2.45,0,0,0,73.16,136.18Z"/><path class="cls-1" d="M83.63,136.18a2.45,2.45,0,0,0-2.45,2.45v5.24a2.45,2.45,0,1,0,4.9,0v-5.24A2.45,2.45,0,0,0,83.63,136.18Z"/><path class="cls-1" d="M94.11,136.18a2.45,2.45,0,0,0-2.45,2.45v5.24a2.45,2.45,0,1,0,4.9,0v-5.24A2.45,2.45,0,0,0,94.11,136.18Z"/><path class="cls-1" d="M104.59,136.18a2.45,2.45,0,0,0-2.45,2.45v5.24a2.45,2.45,0,1,0,4.9,0v-5.24A2.45,2.45,0,0,0,104.59,136.18Z"/><path class="cls-1" d="M115.06,136.18a2.45,2.45,0,0,0-2.45,2.45v5.24a2.45,2.45,0,1,0,4.9,0v-5.24A2.45,2.45,0,0,0,115.06,136.18Z"/><path class="cls-1" d="M125.54,136.18a2.45,2.45,0,0,0-2.45,2.45v5.24a2.45,2.45,0,1,0,4.9,0v-5.24A2.45,2.45,0,0,0,125.54,136.18Z"/><path class="cls-1" d="M136,136.18a2.45,2.45,0,0,0-2.45,2.45v5.24a2.45,2.45,0,0,0,4.9,0v-5.24A2.45,2.45,0,0,0,136,136.18Z"/></g></g></svg>