<svg xmlns="http://www.w3.org/2000/svg" viewBox="0 0 141.49 141.49"><defs><style>.cls-1{fill:#fff;}</style></defs><g id="Capa_2" data-name="Capa 2"><g id="Capa_1-2" data-name="Capa 1"><rect class="cls-1" x="49.52" y="47.16" width="4.72" height="4.72"/><rect class="cls-1" x="49.52" y="56.6" width="4.72" height="4.72"/><rect class="cls-1" x="49.52" y="66.03" width="4.72" height="4.72"/><rect class="cls-1" x="49.52" y="75.46" width="4.72" height="4.72"/><rect class="cls-1" x="58.95" y="47.16" width="4.72" height="4.72"/><rect class="cls-1" x="58.95" y="56.6" width="4.72" height="4.72"/><rect class="cls-1" x="58.95" y="66.03" width="4.72" height="4.72"/><rect class="cls-1" x="58.95" y="75.46" width="4.72" height="4.72"/><rect class="cls-1" x="68.39" y="47.16" width="4.72" height="4.72"/><rect class="cls-1" x="68.39" y="56.6" width="4.72" height="4.72"/><rect class="cls-1" x="68.39" y="66.03" width="4.72" height="4.72"/><rect class="cls-1" x="68.39" y="75.46" width="4.72" height="4.72"/><rect class="cls-1" x="77.82" y="47.16" width="4.72" height="4.72"/><rect class="cls-1" x="58.95" y="37.73" width="4.72" height="4.72"/><rect class="cls-1" x="68.39" y="37.73" width="4.72" height="4.72"/><rect class="cls-1" x="77.82" y="37.73" width="4.72" height="4.72"/><rect class="cls-1" x="77.82" y="56.6" width="4.72" height="4.72"/><rect class="cls-1" x="77.82" y="66.03" width="4.72" height="4.72"/><rect class="cls-1" x="77.82" y="75.46" width="4.72" height="4.72"/><rect class="cls-1" x="87.25" y="47.16" width="4.72" height="4.72"/><rect class="cls-1" x="87.25" y="56.6" width="4.72" height="4.72"/><rect class="cls-1" x="87.25" y="66.03" width="4.72" height="4.72"/><rect class="cls-1" x="87.25" y="75.46" width="4.72" height="4.72"/><path class="cls-1" d="M139.13,35.37H103.76v-33A2.36,2.36,0,0,0,101.4,0H40.09a2.36,2.36,0,0,0-2.36,2.36h0v33H2.36A2.36,2.36,0,0,0,0,37.73H0v84.9A2.35,2.35,0,0,0,2.36,125H7.29a14.39,14.39,0,0,0-.22,2.36v11.79a2.36,2.36,0,0,0,2.36,2.36H132.06a2.36,2.36,0,0,0,2.36-2.36h0V127.34a14.39,14.39,0,0,0-.22-2.36h4.93a2.36,2.36,0,0,0,2.36-2.35h0V37.73A2.36,2.36,0,0,0,139.13,35.37Zm-37.73,66a4.72,4.72,0,1,1-4.71-4.71A4.71,4.71,0,0,1,101.4,101.4ZM44.81,96.69a4.72,4.72,0,1,1-4.72,4.71A4.71,4.71,0,0,1,44.81,96.69ZM30.66,136.77H11.79v-9.43a9.44,9.44,0,0,1,18.87,0ZM16.51,108.48a4.72,4.72,0,1,1,4.71,4.71A4.71,4.71,0,0,1,16.51,108.48ZM31,117.15a14.14,14.14,0,0,0-3-2.2,9.43,9.43,0,1,0-13.65,0A14.25,14.25,0,0,0,9,120.27H4.72V40.09h33V95.23A9.3,9.3,0,0,0,38,107.88,14.21,14.21,0,0,0,31,117.15Zm23.23,19.62H35.37v-16.5a9.44,9.44,0,1,1,18.87,0Zm28.3,0H59v-16.5a11.8,11.8,0,0,1,23.59,0ZM63.67,96.69a7.08,7.08,0,1,1,7.08,7.07A7.08,7.08,0,0,1,63.67,96.69Zm21.44,15.47a16.63,16.63,0,0,0-6.77-6.53,11.79,11.79,0,1,0-16.61-1.43,12,12,0,0,0,1.42,1.43,16.63,16.63,0,0,0-6.77,6.53,14.23,14.23,0,0,0-4.75-4.28A9.37,9.37,0,0,0,42.45,92.3V4.72H99V92.3a9.39,9.39,0,0,0-9.18,15.58A14.23,14.23,0,0,0,85.11,112.16Zm21,15.18v9.43H87.25v-16.5a9.44,9.44,0,1,1,18.87,0Zm23.58,9.43H110.83v-9.43a9.44,9.44,0,0,1,18.87,0Zm-14.15-28.29a4.72,4.72,0,1,1,4.72,4.71A4.72,4.72,0,0,1,115.55,108.48Zm21.22,11.79H132.5a14.25,14.25,0,0,0-5.41-5.32,9.43,9.43,0,1,0-13.65,0,14.14,14.14,0,0,0-3,2.2,14.21,14.21,0,0,0-7-9.27,9.3,9.3,0,0,0,.25-12.65V40.09h33v80.18Z"/><rect class="cls-1" x="110.83" y="54.24" width="4.72" height="37.73"/><rect class="cls-1" x="124.98" y="54.24" width="4.72" height="37.73"/><rect class="cls-1" x="11.79" y="54.24" width="4.72" height="37.73"/><rect class="cls-1" x="25.94" y="54.24" width="4.72" height="37.73"/><path class="cls-1" d="M84.9,9.43H56.6a2.36,2.36,0,0,0-2.36,2.36h0V30.66A2.35,2.35,0,0,0,56.59,33h28.3a2.34,2.34,0,0,0,2.36-2.35h0V11.79A2.36,2.36,0,0,0,84.9,9.43ZM82.54,28.3H59V14.15H82.54Z"/></g></g></svg>