<svg xmlns="http://www.w3.org/2000/svg" viewBox="0 0 162.88 162.88"><defs><style>.cls-1{fill:#fff;}</style></defs><g id="Capa_2" data-name="Capa 2"><g id="Capa_1-2" data-name="Capa 1"><g id="Franchise"><path class="cls-1" d="M162.08,104,151.22,93.09a2.71,2.71,0,0,0-1.92-.79H105.87a2.71,2.71,0,0,0-1.92.79L93.09,104a2.71,2.71,0,0,0-.79,1.92v16.29a8.12,8.12,0,0,0,5.43,7.64v30.36a2.71,2.71,0,0,0,2.71,2.72h54.29a2.72,2.72,0,0,0,2.72-2.72V129.8a8.14,8.14,0,0,0,5.43-7.64V105.87A2.72,2.72,0,0,0,162.08,104Zm-15.49,18.21a2.72,2.72,0,0,1-5.43,0v-2.72h5.43Zm-10.86,0a2.72,2.72,0,0,1-5.43,0v-2.72h5.43Zm-10.86,0a2.72,2.72,0,0,1-5.43,0v-2.72h5.43Zm-10.86,0a2.72,2.72,0,0,1-5.43,0v-2.72H114Zm-10.85,0a2.72,2.72,0,0,1-5.43,0v-2.72h5.43ZM97.73,114v-5.43h59.72V114ZM107,97.73h41.19l5.43,5.43H101.56Zm4.31,59.72V141.16h10.86v16.29Zm16.29,0v-19a2.72,2.72,0,0,0-2.72-2.72H108.58a2.72,2.72,0,0,0-2.71,2.72v19h-2.71V129.8a8.08,8.08,0,0,0,2.71-1.63,8,8,0,0,0,10.86,0,8,8,0,0,0,10.86,0,8,8,0,0,0,10.86,0,8,8,0,0,0,10.85,0A8.12,8.12,0,0,0,152,129.8v27.65Zm29.86-35.29a2.72,2.72,0,0,1-5.43,0v-2.72h5.43Z"/><path class="cls-1" d="M146.59,135.73H133a2.72,2.72,0,0,0-2.72,2.72V149.3A2.72,2.72,0,0,0,133,152h13.57a2.71,2.71,0,0,0,2.71-2.72V138.45A2.71,2.71,0,0,0,146.59,135.73Zm-2.72,10.86h-8.14v-5.43h8.14Z"/><path class="cls-1" d="M69.78,104,58.93,93.09A2.71,2.71,0,0,0,57,92.3H13.57a2.71,2.71,0,0,0-1.92.79L.8,104a2.72,2.72,0,0,0-.8,1.92v16.29a8.13,8.13,0,0,0,5.43,7.64v30.36a2.71,2.71,0,0,0,2.71,2.72h54.3a2.71,2.71,0,0,0,2.71-2.72V129.8a8.13,8.13,0,0,0,5.43-7.64V105.87A2.72,2.72,0,0,0,69.78,104ZM54.29,122.16a2.72,2.72,0,0,1-5.43,0v-2.72h5.43Zm-10.86,0a2.72,2.72,0,0,1-5.43,0v-2.72h5.43Zm-10.85,0a2.72,2.72,0,0,1-5.43,0v-2.72h5.43Zm-10.86,0a2.72,2.72,0,0,1-5.43,0v-2.72h5.43Zm-10.86,0a2.72,2.72,0,0,1-5.43,0v-2.72h5.43ZM5.43,114v-5.43H65.15V114ZM14.7,97.73H55.88l5.43,5.43h-52ZM19,157.45V141.16H29.86v16.29Zm16.29,0v-19a2.72,2.72,0,0,0-2.71-2.72H16.29a2.72,2.72,0,0,0-2.72,2.72v19H10.86V129.8a8.08,8.08,0,0,0,2.71-1.63,8,8,0,0,0,10.86,0,8,8,0,0,0,10.86,0,8,8,0,0,0,10.86,0,8,8,0,0,0,10.86,0,8.08,8.08,0,0,0,2.71,1.63v27.65Zm29.86-35.29a2.72,2.72,0,0,1-5.43,0v-2.72h5.43Z"/><path class="cls-1" d="M54.29,135.73H40.72A2.72,2.72,0,0,0,38,138.45V149.3A2.72,2.72,0,0,0,40.72,152H54.29A2.72,2.72,0,0,0,57,149.3V138.45A2.72,2.72,0,0,0,54.29,135.73Zm-2.71,10.86H43.43v-5.43h8.15Z"/><path class="cls-1" d="M115.93,11.65,105.07.8a2.68,2.68,0,0,0-1.91-.8H59.72A2.72,2.72,0,0,0,57.8.8L46.94,11.65a2.71,2.71,0,0,0-.79,1.92V29.86a8.15,8.15,0,0,0,5.43,7.65V67.87a2.71,2.71,0,0,0,2.71,2.71h54.29a2.72,2.72,0,0,0,2.72-2.71V37.51a8.17,8.17,0,0,0,5.43-7.65V13.57A2.72,2.72,0,0,0,115.93,11.65ZM60.85,5.43H102l5.43,5.43h-52ZM51.58,27.15H57v2.71a2.72,2.72,0,1,1-5.43,0Zm13.57,38V48.86H76V65.15Zm16.29,0v-19a2.72,2.72,0,0,0-2.72-2.72H62.44a2.72,2.72,0,0,0-2.72,2.72v19H57V37.51a8.42,8.42,0,0,0,2.71-1.63,8,8,0,0,0,10.86,0,8,8,0,0,0,10.86,0,8,8,0,0,0,10.86,0,8,8,0,0,0,10.86,0,8.42,8.42,0,0,0,2.71,1.63V65.15Zm-19-35.29V27.15h5.43v2.71a2.72,2.72,0,1,1-5.43,0Zm10.85,0V27.15h5.43v2.71a2.72,2.72,0,1,1-5.43,0Zm10.86,0V27.15h5.43v2.71a2.72,2.72,0,1,1-5.43,0Zm10.86,0V27.15h5.43v2.71a2.72,2.72,0,1,1-5.43,0Zm16.29,0a2.72,2.72,0,1,1-5.43,0V27.15h5.43Zm0-8.14H51.58V16.29H111.3Z"/><path class="cls-1" d="M100.44,43.43H86.87a2.72,2.72,0,0,0-2.72,2.72V57a2.71,2.71,0,0,0,2.72,2.71h13.57A2.71,2.71,0,0,0,103.16,57V46.15A2.72,2.72,0,0,0,100.44,43.43ZM97.73,54.29H89.58V48.86h8.15Z"/><path class="cls-1" d="M116.73,48.86h5.43v5.43h-5.43Z"/><path class="cls-1" d="M127.59,48.86H133v5.43h-5.43Z"/><path class="cls-1" d="M138.45,48.86h5.42v5.43h-5.42Z"/><path class="cls-1" d="M138.45,59.72h5.42v5.43h-5.42Z"/><path class="cls-1" d="M138.45,70.58h5.42V76h-5.42Z"/><path class="cls-1" d="M138.45,81.44h5.42v5.43h-5.42Z"/><path class="cls-1" d="M40.72,48.86h5.43v5.43H40.72Z"/><path class="cls-1" d="M29.86,48.86h5.43v5.43H29.86Z"/><path class="cls-1" d="M19,48.86h5.43v5.43H19Z"/><path class="cls-1" d="M19,59.72h5.43v5.43H19Z"/><path class="cls-1" d="M19,70.58h5.43V76H19Z"/><path class="cls-1" d="M19,81.44h5.43v5.43H19Z"/></g></g></g></svg>