<svg xmlns="http://www.w3.org/2000/svg" viewBox="0 0 116.91 173.22"><defs><style>.cls-1{fill:#fff;}</style></defs><g id="Capa_2" data-name="Capa 2"><g id="Capa_1-2" data-name="Capa 1"><path class="cls-1" d="M116.91,153.28v17.06a2.89,2.89,0,0,1-5.77,0V153.28a24,24,0,0,0-24-24,17.71,17.71,0,0,1-15.25-8.56,2.89,2.89,0,1,1,4.93-3,12,12,0,0,0,10.31,5.79,29.78,29.78,0,0,1,29.8,29.79ZM66.54,124.35a2.88,2.88,0,0,1-2.21,3.43,27.62,27.62,0,0,1-21.48-4.2,17.47,17.47,0,0,1-13,5.68,24,24,0,0,0-24,24v17.06a2.89,2.89,0,0,1-5.77,0V153.28a29.78,29.78,0,0,1,29.79-29.79,12,12,0,0,0,12.07-12v-.76a38.69,38.69,0,0,1-22-33.43,11.78,11.78,0,0,1-9-11.41v-15c-.16-7.33.92-25.68,14.3-38.57C41.65-3.59,68.14-2.58,87.61,6.8a2.88,2.88,0,0,1,.61,4.8,39,39,0,0,1,23.85,17.16,3.21,3.21,0,0,1,.66,2.27,2.91,2.91,0,0,1-.83,1.83,18.83,18.83,0,0,0-5.45,13.31V65.86a2.89,2.89,0,1,1-5.78,0V46.17a24.56,24.56,0,0,1,5.61-15.69,33.3,33.3,0,0,0-23.93-14l-5.08-.55a2.89,2.89,0,0,1-.79-5.54l2.31-.95C48.74-1.08,16.6,10.56,16.6,50.86v15a6,6,0,0,0,3.25,5.28V52.43a20.23,20.23,0,0,1,20.2-20.21H76.86a20.23,20.23,0,0,1,20.2,20.21V76.06c0,25.11-24.53,44.18-49.49,36.83a17.71,17.71,0,0,1-1.51,5.89,21.83,21.83,0,0,0,17,3.36,2.89,2.89,0,0,1,3.44,2.21Zm-8.09-15.67A32.87,32.87,0,0,0,91.29,75.84V52.43A14.45,14.45,0,0,0,76.86,38H40.05A14.45,14.45,0,0,0,25.62,52.43V75.84a32.87,32.87,0,0,0,32.83,32.84Zm29.23,49.75H79a2.89,2.89,0,0,0,0,5.77h8.66a2.89,2.89,0,1,0,0-5.77Z"/></g></g></svg>