<svg xmlns="http://www.w3.org/2000/svg" viewBox="0 0 170.22 170.22"><defs><style>.cls-1{fill:#fff;}</style></defs><g id="Capa_2" data-name="Capa 2"><g id="Capa_1-2" data-name="Capa 1"><path class="cls-1" d="M161.43,97.61a64.47,64.47,0,0,0,8.33-25,.19.19,0,0,0,0-.08,64.73,64.73,0,0,0-16.62-51.42,3.53,3.53,0,0,0-.59-.63A65.15,65.15,0,0,0,127.52,4a2.47,2.47,0,0,0-.54-.19,65,65,0,0,0-45.89.88,3,3,0,0,0-.58.24A65.3,65.3,0,0,0,56.7,21.78a3.72,3.72,0,0,0-.56.63A64.72,64.72,0,0,0,40.2,65a66.2,66.2,0,0,0,.4,7.22s0,.06,0,.09a64.68,64.68,0,0,0,2.68,12.49L8.36,119.73a3.32,3.32,0,0,0,4.7,4.7L45.89,91.6a66,66,0,0,0,3,5.92,2.92,2.92,0,0,0,.38.64A65.3,65.3,0,0,0,86.5,127.27L63.08,150.69a3.33,3.33,0,1,0,4.71,4.7l26.32-26.32A65,65,0,0,0,161,98.31,3.47,3.47,0,0,0,161.43,97.61Zm-28.76.13-11.83-18.2,6.29-19.35,15-3.36L146,56l17,17.45a57.81,57.81,0,0,1-6.74,19.91ZM89.58,79.54,77.76,97.73,54.12,93.2a58.17,58.17,0,0,1-6.71-20.08L64.43,56l18.86,4.24,4.19,12.9ZM56.82,32.42l3,18.74-13,13.07A58,58,0,0,1,56.82,32.42ZM95.65,76.7,89.77,58.63l15.38-11.17,15.37,11.17L114.65,76.7Zm67.91-12.21-13-13.37,2.3-19.8A58.08,58.08,0,0,1,163.56,64.49ZM147,24.28,144,49.58l-7.15,1.6-11.58,2.6-16.7-12.13v-18l18-12.94A58.67,58.67,0,0,1,147,24.28Zm-28.25-16L105.07,18,89.86,8.7a58.48,58.48,0,0,1,28.85-.47ZM81.79,11.56l20,12.25V41.65L90.05,50.21l-4.92,3.57L66.29,49.56,62.42,25.37A58.46,58.46,0,0,1,81.79,11.56ZM59.26,101,77.2,104.4l9.14,15.84A58.71,58.71,0,0,1,59.26,101Zm36.08,21.57-12.12-21L95,83.35h20.35l11.81,18.18-12.11,21a58.41,58.41,0,0,1-19.74,0Zm28.74-2.29,9.13-15.83,17.87-3.36A58.67,58.67,0,0,1,124.08,120.24Z"/><path class="cls-1" d="M45.79,119.73,1,164.54a3.33,3.33,0,1,0,4.71,4.7l44.81-44.81a3.32,3.32,0,0,0-4.7-4.7Z"/><path class="cls-1" d="M55.24,159.91a3.33,3.33,0,1,0,2.35,1A3.34,3.34,0,0,0,55.24,159.91Z"/></g></g></svg>