<svg xmlns="http://www.w3.org/2000/svg" viewBox="0 0 142.61 147.53"><defs><style>.cls-1{fill:#fff;}</style></defs><g id="Capa_2" data-name="Capa 2"><g id="Capa_1-2" data-name="Capa 1"><g id="Outline"><path class="cls-1" d="M142.61,125.4V103.27H137.7v9.84h-7.38V56.55a2.46,2.46,0,0,0-2.46-2.46H98.35a2.47,2.47,0,0,0-2.46,2.46v56.56H83.6V118h54.1v4.92H83.6v4.92h56.55A2.46,2.46,0,0,0,142.61,125.4ZM125.4,113.11H100.81V59H125.4ZM14.75,78.68H9.84V68.85h4.91ZM86.06,98.35V59H71.31V54.09H88.52A2.46,2.46,0,0,1,91,56.55v44.26a2.46,2.46,0,0,1-2.46,2.46H83.6V98.35Zm49.1-96.49A2.45,2.45,0,0,0,132.78,0H9.84A2.46,2.46,0,0,0,7.45,1.86S.08,31.36.07,31.37a2.78,2.78,0,0,0-.07.57V83.6H4.92V46.71a12.24,12.24,0,0,0,7.37,2.47V44.26a7.39,7.39,0,0,1-7.37-7.38V34.42h9.83V29.51H5.61L11.76,4.92H24.14L20.93,24.18l4.85.81L29.13,4.92H41.59L40,24.38l4.9.41L46.52,4.92H59V22.13h4.92V4.92H78.68V29.51H68.85v4.91h9.83v2.46a7.37,7.37,0,0,1-11.06,6.39l-2.46,4.26a12.29,12.29,0,0,0,16-3.28,12.28,12.28,0,0,0,17.19,2.48,12.14,12.14,0,0,0,2.48-2.48A12.28,12.28,0,0,0,118,46.73a12.14,12.14,0,0,0,2.48-2.48,12.28,12.28,0,0,0,17.19,2.48l0,0V98.35h4.91V31.94a2.22,2.22,0,0,0-.07-.57ZM83.6,4.92H96.09l2,24.59H83.6Zm14.75,32a7.38,7.38,0,1,1-14.75,0V34.42H98.35Zm2.68-32h12.45l4.1,24.59H103.07Zm17,32a7.38,7.38,0,1,1-14.75,0V34.42H118Zm2.5-19.67-2-12.29h12.39L137,29.51H122.57ZM137.7,36.88a7.38,7.38,0,0,1-14.76,0V34.42H137.7ZM120.48,93.44h-4.91V78.68h4.91ZM5.11,96.38l-4.81-1A14.52,14.52,0,0,0,0,98.35v36.89a12.31,12.31,0,0,0,12.29,12.29h54.1a12.3,12.3,0,0,0,12.29-12.29V98.35A14.77,14.77,0,0,0,63.93,83.6H51.64V82.33a22.23,22.23,0,0,0,9.69-15.94h.14a7.38,7.38,0,1,0,0-14.75h0s0-7.94,0-8.23a9.76,9.76,0,0,0,2.49-6.53V29.51a2.46,2.46,0,0,0-2.46-2.46h-32a12.3,12.3,0,0,0-12.3,12.29v12.3a7.38,7.38,0,0,0,0,14.75h.14a22.21,22.21,0,0,0,9.7,15.94V83.6H14.75A14.64,14.64,0,0,0,3,89.5l3.93,3a9.78,9.78,0,0,1,7.87-3.93h12.3v9.83a2.46,2.46,0,0,0,2.46,2.46,2.32,2.32,0,0,0,.59-.07L36.88,99v19.48L22.13,116V100.81H17.21v4.92H4.92V98.35A10,10,0,0,1,5.11,96.38ZM61.47,56.55a2.46,2.46,0,1,1,0,4.92ZM17.21,61.47a2.46,2.46,0,0,1,0-4.92Zm49.18,81.14H61.76l-11.68-2.75,9.22-2.16h14A7.38,7.38,0,0,1,66.39,142.61Zm7.38-27H61.47v-4.92h12.3Zm-9.84-27a9.84,9.84,0,0,1,9.84,9.83v7.38H61.47v-4.92H56.55V116L41.8,118.52V99l6.78,1.7a2.48,2.48,0,0,0,3.06-2.39V88.52Zm-19.78,6L46.72,92v3.2Zm12.4-46.88-.67-1.13.67-.14ZM22.13,44.26V39.34A7.39,7.39,0,0,1,29.51,32H59v4.92a4.92,4.92,0,0,1-4.92,4.92h-27A2.45,2.45,0,0,0,24.94,43l-2.81,4.69Zm0,19.67v-6.7l6.31-10.51h21.8l6.31,10.51v6.7a17.21,17.21,0,1,1-34.42,0ZM32,95.2V92l2.57,2.56ZM32,85V84.8a22.24,22.24,0,0,0,14.76,0V85l-7.38,7.38Zm27.26,35.44H73.77v12.3H59a2.6,2.6,0,0,0-.56.06l-41.52,9.77H12.29a7.37,7.37,0,0,1-7.37-7.37v-5.31Zm-39.76,0,5.53,1L4.92,124.94v-4.46Zm-2.25-9.83v4.92H4.92v-4.92ZM32,105.73v4.92H27.05v-4.92Zm7.38-32.18a15.74,15.74,0,0,1-8.74-2.66l2.73-4.09a10.78,10.78,0,0,0,12,0l2.73,4.09A15.72,15.72,0,0,1,39.34,73.55Zm-8.6-12.08a3.69,3.69,0,1,1,3.68-3.69A3.69,3.69,0,0,1,30.74,61.47Zm13.52-3.69A3.69,3.69,0,1,1,48,61.47,3.69,3.69,0,0,1,44.26,57.78Z"/></g></g></g></svg>