<svg xmlns="http://www.w3.org/2000/svg" viewBox="0 0 584.12 102.4"><defs><style>.cls-1{fill:#80a3c0;}.cls-2{fill:#114280;}</style></defs><g id="Capa_2" data-name="Capa 2"><g id="Capa_1-2" data-name="Capa 1"><rect class="cls-1" x="59.97" y="72.52" width="29.69" height="29.69" rx="1.93"/><rect class="cls-1" x="119.36" y="72.52" width="29.69" height="29.69" rx="1.93"/><rect class="cls-1" x="178.74" y="72.52" width="29.69" height="29.69" rx="1.93"/><path class="cls-2" d="M45.86,5.39a2.45,2.45,0,0,1,1,1,1.63,1.63,0,0,1-.12,1.47L40.2,17.1a1.55,1.55,0,0,1-.9.75,1.76,1.76,0,0,1-1.18-.33A14.53,14.53,0,0,0,34,15.33a14.69,14.69,0,0,0-4.81-.77,14,14,0,0,0-5.81,1.19A14.13,14.13,0,0,0,18.75,19a15.34,15.34,0,0,0-3,4.85,16.79,16.79,0,0,0,0,11.85,15,15,0,0,0,3,4.81A14.11,14.11,0,0,0,29.15,45a14.94,14.94,0,0,0,9.05-3,1.79,1.79,0,0,1,1.16-.34,1.58,1.58,0,0,1,.92.69l6.58,9.47A1.52,1.52,0,0,1,47,53.22a2.6,2.6,0,0,1-1,1,30.86,30.86,0,0,1-7.8,3.76A29.39,29.39,0,0,1,8.61,50.66,30.06,30.06,0,0,1,4,44.73a28.85,28.85,0,0,1-3-7A29.59,29.59,0,0,1,4,15,29.87,29.87,0,0,1,8.61,9a28.26,28.26,0,0,1,6-4.6,30.36,30.36,0,0,1,7-3,30,30,0,0,1,16.56.24A29.69,29.69,0,0,1,45.86,5.39Z"/><path class="cls-2" d="M59.65,3a1.89,1.89,0,0,1,.42-1.29,1.61,1.61,0,0,1,1.27-.48H86.22a18.84,18.84,0,0,1,7.43,1.48,19.36,19.36,0,0,1,6,4,18.77,18.77,0,0,1,4.06,5.95A18,18,0,0,1,105.24,20a17.33,17.33,0,0,1-.71,5,19,19,0,0,1-2,4.43,18.81,18.81,0,0,1-3,3.74A20.16,20.16,0,0,1,95.69,36l9.9,18.63c.18.36.41.79.69,1.27a2.69,2.69,0,0,1,.42,1.28,1.14,1.14,0,0,1-.4.94,1.68,1.68,0,0,1-1.1.33H92A1.92,1.92,0,0,1,90.82,58a1.69,1.69,0,0,1-.67-1l-9.36-17.6H74.55V56.76c0,1.1-.59,1.66-1.77,1.66H61.34A1.81,1.81,0,0,1,60.11,58a1.56,1.56,0,0,1-.46-1.25ZM89.8,20.1a6.72,6.72,0,0,0-.42-2.31,7.54,7.54,0,0,0-1.2-2.12,6.82,6.82,0,0,0-1.85-1.61A6.22,6.22,0,0,0,84,13.21l-2-.14c-.63,0-1.32-.05-2.07-.05H74.55V27.15h7.09c.46,0,.87,0,1.23,0s.76-.06,1.19-.12a6,6,0,0,0,2.43-.79,6.24,6.24,0,0,0,1.81-1.57,7.06,7.06,0,0,0,1.12-2.12A7.88,7.88,0,0,0,89.8,20.1Z"/><path class="cls-2" d="M116.83,3a1.85,1.85,0,0,1,.44-1.29,1.62,1.62,0,0,1,1.25-.48h38.21a1.72,1.72,0,0,1,1.31.5,1.94,1.94,0,0,1,.46,1.35V12.6a2.08,2.08,0,0,1-.46,1.25,1.63,1.63,0,0,1-1.35.59h-25V24H151a2,2,0,0,1,1.21.35,1.32,1.32,0,0,1,.48,1.15v8.32a1.6,1.6,0,0,1-.42,1,1.53,1.53,0,0,1-1.23.5h-19.3v9.86h25.88A1.54,1.54,0,0,1,159.34,47v9.68a1,1,0,0,1-.3.69c-.11.72-.63,1.08-1.58,1.08H118.52a1.81,1.81,0,0,1-1.23-.41,1.59,1.59,0,0,1-.46-1.25Z"/><path class="cls-2" d="M179.1,39.93c.43.36,1,.84,1.67,1.45a23.26,23.26,0,0,0,2.33,1.79,20,20,0,0,0,3.89,2,11.27,11.27,0,0,0,4,.73,10.69,10.69,0,0,0,3.29-.44,5.69,5.69,0,0,0,2.1-1.18,4,4,0,0,0,1.09-1.69,6.23,6.23,0,0,0,.33-2,3,3,0,0,0-.9-2.13,9.45,9.45,0,0,0-2.22-1.68A19.86,19.86,0,0,0,192,35.53c-.95-.34-1.77-.63-2.47-.86a55.89,55.89,0,0,1-8.08-3.49A24.72,24.72,0,0,1,175.67,27a15.63,15.63,0,0,1-3.46-5,15.7,15.7,0,0,1-1.16-6.14,14.53,14.53,0,0,1,1.44-6.5,14.35,14.35,0,0,1,4.12-5,19.5,19.5,0,0,1,6.45-3.21A29.16,29.16,0,0,1,191.5,0a28,28,0,0,1,6.72.79,26,26,0,0,1,6.33,2.52c.87.52,1.7,1.05,2.49,1.6a24.38,24.38,0,0,1,2.06,1.6A9.81,9.81,0,0,1,210.5,8,2.1,2.1,0,0,1,211,9.16a1.75,1.75,0,0,1-.25.93,6.39,6.39,0,0,1-.75,1l-5.89,6.28a1.87,1.87,0,0,1-1.31.65,1.69,1.69,0,0,1-1-.3c-.3-.21-.63-.47-1-.77l-.35-.31c-.51-.44-1.09-.89-1.71-1.35a15.32,15.32,0,0,0-2-1.25,14.21,14.21,0,0,0-2.27-.93,8.3,8.3,0,0,0-2.42-.36,12.89,12.89,0,0,0-2.39.21,6.92,6.92,0,0,0-2,.67,3.76,3.76,0,0,0-1.34,1.22,3.17,3.17,0,0,0-.5,1.83,3.28,3.28,0,0,0,.53,1.86A5.33,5.33,0,0,0,188,20a15,15,0,0,0,2.68,1.27c1.06.4,2.3.83,3.71,1.29q4.1,1.35,7.53,2.83a25.3,25.3,0,0,1,6,3.5,14.56,14.56,0,0,1,3.91,4.83,15.11,15.11,0,0,1,1.41,6.82,16.78,16.78,0,0,1-1.74,7.68,17.58,17.58,0,0,1-4.75,5.88,22.52,22.52,0,0,1-7.11,3.75,28,28,0,0,1-8.78,1.33,25,25,0,0,1-8.7-1.58,33.73,33.73,0,0,1-8-4.25,21,21,0,0,1-2.6-2.2c-.71-.73-1.26-1.3-1.67-1.74l-.12-.12s-.05-.08-.08-.09l-.07-.06a.31.31,0,0,0-.08-.1.21.21,0,0,1-.08-.06,2.68,2.68,0,0,1-.88-1.54,2.18,2.18,0,0,1,.88-1.47l6.66-6.35a2.49,2.49,0,0,1,1.31-.58,1.44,1.44,0,0,1,.73.23A6.42,6.42,0,0,1,179.1,39.93Z"/><path class="cls-2" d="M269.13,5.39a2.36,2.36,0,0,1,1,1A1.6,1.6,0,0,1,270,7.86l-6.51,9.24a1.56,1.56,0,0,1-.91.75,1.73,1.73,0,0,1-1.17-.33,14.53,14.53,0,0,0-4.16-2.19,14.69,14.69,0,0,0-4.81-.77A13.93,13.93,0,0,0,242,19a15.16,15.16,0,0,0-3,4.85,16.79,16.79,0,0,0,0,11.85,14.87,14.87,0,0,0,3,4.81A14.07,14.07,0,0,0,252.42,45a14.94,14.94,0,0,0,9.05-3,1.76,1.76,0,0,1,1.15-.34,1.57,1.57,0,0,1,.93.69l6.58,9.47a1.55,1.55,0,0,1,.12,1.43,2.55,2.55,0,0,1-1,1,30.63,30.63,0,0,1-7.79,3.76,29.52,29.52,0,0,1-23.67-2.68,29.79,29.79,0,0,1-10.55-10.53,29.08,29.08,0,0,1-4-14.85,28.9,28.9,0,0,1,1-7.83,29.3,29.3,0,0,1,3-7,29.82,29.82,0,0,1,4.6-6,28.78,28.78,0,0,1,5.95-4.6,30.43,30.43,0,0,1,7-3,30,30,0,0,1,16.56.24A29.85,29.85,0,0,1,269.13,5.39Z"/><path class="cls-2" d="M283,2.93a1.77,1.77,0,0,1,.43-1.2,1.57,1.57,0,0,1,1.27-.5H296a2.24,2.24,0,0,1,1.23.46,1.44,1.44,0,0,1,.66,1.24V56.72c0,1.13-.63,1.7-1.89,1.7H284.69a1.51,1.51,0,0,1-1.7-1.7Z"/><path class="cls-2" d="M316.57,2.93a2,2,0,0,1,.54-1.2,1.7,1.7,0,0,1,1.31-.5h13.32a1.79,1.79,0,0,1,1.85,1.47l10.47,35,10.56-35a2,2,0,0,1,2-1.47h13.17a1.93,1.93,0,0,1,1.89,1.7q1.33,13.55,2.75,26.89t2.75,26.9v.19c0,1-.56,1.51-1.69,1.51h-10.9a1.62,1.62,0,0,1-1.85-1.7L359.35,27l-8.66,29.95a2.17,2.17,0,0,1-.56.93,1.33,1.33,0,0,1-.94.54H339.06a1.47,1.47,0,0,1-1-.52,1.61,1.61,0,0,1-.56-1L328.85,27,325.5,56.72a1.63,1.63,0,0,1-1.88,1.7h-10.9a1.49,1.49,0,0,1-1.66-1.7Z"/><path class="cls-2" d="M390.39,3a1.85,1.85,0,0,1,.44-1.29,1.63,1.63,0,0,1,1.25-.48h25.57a16.09,16.09,0,0,1,6.4,1.29,16.51,16.51,0,0,1,5.25,3.55,16.85,16.85,0,0,1,3.56,5.27,16.05,16.05,0,0,1,1.31,6.49,15.64,15.64,0,0,1-.9,5.37,14.56,14.56,0,0,1-2.56,4.45,18.79,18.79,0,0,1,4.39,6,17.54,17.54,0,0,1,1.62,7.44,16.63,16.63,0,0,1-1.35,6.64,18.17,18.17,0,0,1-3.64,5.51A17.4,17.4,0,0,1,426.38,57a15.59,15.59,0,0,1-6.45,1.39H392.08a1.81,1.81,0,0,1-1.23-.41,1.56,1.56,0,0,1-.46-1.25Zm29,15.18A5.55,5.55,0,0,0,419,16a5.34,5.34,0,0,0-1.2-1.77A5.52,5.52,0,0,0,415.91,13a6.22,6.22,0,0,0-2.35-.44h-8.27V23.76h8.15a7.17,7.17,0,0,0,2.41-.4,5.28,5.28,0,0,0,1.88-1.16,5.55,5.55,0,0,0,1.66-4Zm2,22.37a6.32,6.32,0,0,0-.45-2.31,6.79,6.79,0,0,0-1.23-2.06,6.53,6.53,0,0,0-1.89-1.48,5,5,0,0,0-2.38-.58H405.29V47h10.19a5.21,5.21,0,0,0,2.36-.54A6.33,6.33,0,0,0,419.73,45a6.77,6.77,0,0,0,1.7-4.45Z"/><path class="cls-2" d="M447.8,3a1.81,1.81,0,0,1,.45-1.29,1.6,1.6,0,0,1,1.24-.48H487.7a1.72,1.72,0,0,1,1.31.5,1.89,1.89,0,0,1,.46,1.35V12.6a2,2,0,0,1-.46,1.25,1.63,1.63,0,0,1-1.35.59h-25V24H482a2,2,0,0,1,1.21.35,1.32,1.32,0,0,1,.48,1.15v8.32a1.6,1.6,0,0,1-.42,1,1.53,1.53,0,0,1-1.23.5H462.71v9.86h25.87A1.55,1.55,0,0,1,490.32,47v9.68a1,1,0,0,1-.31.69c-.1.72-.63,1.08-1.58,1.08H449.49a1.81,1.81,0,0,1-1.23-.41,1.59,1.59,0,0,1-.46-1.25Z"/><path class="cls-2" d="M503,2.93a1.77,1.77,0,0,1,.43-1.2,1.57,1.57,0,0,1,1.27-.5h12.59a2.66,2.66,0,0,1,1.12.27,2.45,2.45,0,0,1,1,.93q4.89,7.89,9.7,15.55t9.74,15.56V2.7a1.87,1.87,0,0,1,.62-1.08,1.63,1.63,0,0,1,1.08-.39h11a2,2,0,0,1,1.35.45,1.52,1.52,0,0,1,.54,1.25v54a1.35,1.35,0,0,1-.46,1.14,2,2,0,0,1-1.27.37H539.41a1.27,1.27,0,0,1-.88-.35,5.94,5.94,0,0,1-.81-.92L527.59,40.39q-5-8.26-10.16-16.75V56.72a1.49,1.49,0,0,1-1.78,1.7H504.72a1.6,1.6,0,0,1-1.29-.48,1.8,1.8,0,0,1-.41-1.18Z"/><path class="cls-2" d="M569.22,2.93a1.81,1.81,0,0,1,.42-1.2,1.58,1.58,0,0,1,1.27-.5h11.32a2.24,2.24,0,0,1,1.24.46,1.46,1.46,0,0,1,.65,1.24V56.72c0,1.13-.63,1.7-1.89,1.7H570.91a1.5,1.5,0,0,1-1.69-1.7Z"/><path class="cls-1" d="M237.07,101.28a4.55,4.55,0,0,1,.22-.71l.22-.59L247.78,74.4a1.12,1.12,0,0,1,.31-.46,1,1,0,0,1,.7-.26h3.07a.87.87,0,0,1,.66.23,2.07,2.07,0,0,1,.29.4l.63,1.49L263.5,101a1.06,1.06,0,0,0,0,.2,1.29,1.29,0,0,1,0,.24q0,.57-.84.57H259a1.09,1.09,0,0,1-.65-.17,1.23,1.23,0,0,1-.38-.53l-.35-.88-.72-1.83c-.24-.61-.48-1.23-.71-1.85H244.41c-.33.89-.66,1.73-1,2.51s-.57,1.46-.79,2a1,1,0,0,1-1,.7h-3.81a1.08,1.08,0,0,1-.58-.13.43.43,0,0,1-.22-.4A.65.65,0,0,1,237.07,101.28Zm13.26-20.34c-.68,1.75-1.37,3.57-2.05,5.45s-1.36,3.69-2,5.43h8.11Z"/><path class="cls-1" d="M279.8,74.58c0-.6.28-.9.85-.9h11.92a7.93,7.93,0,0,1,3.12.62A7.85,7.85,0,0,1,298.22,76a7.88,7.88,0,0,1,2.31,5.64,7.42,7.42,0,0,1-.55,2.88,7.68,7.68,0,0,1-1.52,2.34,8.33,8.33,0,0,1,1.41,1.31A9.24,9.24,0,0,1,301,89.77a8,8,0,0,1,.7,1.82,7.6,7.6,0,0,1,.25,2,8.36,8.36,0,0,1-.63,3.22,9,9,0,0,1-1.74,2.69,8.37,8.37,0,0,1-2.58,1.84,7.59,7.59,0,0,1-3.18.67H280.65a.86.86,0,0,1-.61-.2.76.76,0,0,1-.24-.62ZM295,81.72a3.56,3.56,0,0,0-.25-1.35,3.18,3.18,0,0,0-1.82-1.8,3.71,3.71,0,0,0-1.4-.26H285.3v6.9h6.19a3.62,3.62,0,0,0,1.41-.27,3.2,3.2,0,0,0,1.12-.73,3.43,3.43,0,0,0,.74-1.11A3.46,3.46,0,0,0,295,81.72Zm1.24,11.69a3.44,3.44,0,0,0-.23-1.27A3.85,3.85,0,0,0,295.4,91a3.62,3.62,0,0,0-.95-.83,3.4,3.4,0,0,0-1.2-.44l-.78-.11a6.84,6.84,0,0,0-.79,0H285.3v7.74h6.38q.4,0,.78,0a6.76,6.76,0,0,0,.77-.1,3.22,3.22,0,0,0,1.2-.44,3.58,3.58,0,0,0,1-.86,3.7,3.7,0,0,0,.64-1.15A3.78,3.78,0,0,0,296.26,93.41Z"/><path class="cls-1" d="M317.25,87.86a14.68,14.68,0,0,1,.51-3.87,14.18,14.18,0,0,1,1.47-3.49,14.45,14.45,0,0,1,2.28-3,14.13,14.13,0,0,1,2.94-2.28,14.92,14.92,0,0,1,3.48-1.47,14.66,14.66,0,0,1,7.74,0,14.92,14.92,0,0,1,3.48,1.47,14.67,14.67,0,0,1,5.23,5.23A15,15,0,0,1,345.84,84a14.33,14.33,0,0,1,.53,3.89,14.07,14.07,0,0,1-.53,3.87,15,15,0,0,1-1.46,3.47,14.13,14.13,0,0,1-2.28,2.94,14.53,14.53,0,0,1-6.43,3.73,15,15,0,0,1-7.76,0,14.92,14.92,0,0,1-3.48-1.47,14.47,14.47,0,0,1-2.94-2.28,14.36,14.36,0,0,1-3.73-6.4A14.59,14.59,0,0,1,317.25,87.86Zm5.51,0a9.31,9.31,0,0,0,.69,3.6,9.07,9.07,0,0,0,1.91,2.92,8.83,8.83,0,0,0,2.86,2,9,9,0,0,0,7.12,0,9,9,0,0,0,2.87-2,9.51,9.51,0,0,0,1.92-10.1,9.42,9.42,0,0,0-1.92-2.93,9,9,0,0,0-2.87-2,9,9,0,0,0-10,2,9.22,9.22,0,0,0-1.91,2.93A9.32,9.32,0,0,0,322.76,87.82Z"/><path class="cls-1" d="M381.17,90.15a.85.85,0,0,1,.21-.61.79.79,0,0,1,.63-.23h3.1a.91.91,0,0,1,.61.23.74.74,0,0,1,.29.61v8.74a.86.86,0,0,1-.12.44,1,1,0,0,1-.41.4h0s0,0,0,0a13.56,13.56,0,0,1-1.93,1.13,15,15,0,0,1-2.15.83,17.57,17.57,0,0,1-2.31.51,15.53,15.53,0,0,1-2.36.18,14.68,14.68,0,0,1-3.87-.51,14.92,14.92,0,0,1-3.48-1.47,15,15,0,0,1-5.21-5.21,14.43,14.43,0,0,1-1.47-3.47,14.54,14.54,0,0,1,1.47-11.22,14.82,14.82,0,0,1,2.28-3,14.52,14.52,0,0,1,2.94-2.29,14.94,14.94,0,0,1,3.48-1.48,14.2,14.2,0,0,1,3.88-.52,15.21,15.21,0,0,1,5.3,1l1.13.48a11.23,11.23,0,0,1,1.25.63,6.44,6.44,0,0,1,1,.7,1,1,0,0,1,.41.71,1.31,1.31,0,0,1-.17.48c-.12.23-.26.48-.43.76s-.37.57-.58.86-.43.57-.63.81a5.76,5.76,0,0,1-.55.6.72.72,0,0,1-.39.24,1,1,0,0,1-.27,0,1.12,1.12,0,0,1-.33-.19,10.68,10.68,0,0,0-2.71-1.33,9.77,9.77,0,0,0-3.07-.5,9,9,0,0,0-3.74.77A8.94,8.94,0,0,0,370,81.27a9.55,9.55,0,0,0-2.59,6.59,9.12,9.12,0,0,0,.73,3.65,9.54,9.54,0,0,0,2,3,9.3,9.3,0,0,0,2.93,2,8.77,8.77,0,0,0,3.56.74,9.09,9.09,0,0,0,1.39-.11c.46-.07.89-.16,1.29-.26a8,8,0,0,0,1.08-.37,5.64,5.64,0,0,0,.78-.39Z"/><path class="cls-1" d="M402.17,101.28a6,6,0,0,1,.22-.71c.08-.21.16-.41.22-.59L412.88,74.4a1.07,1.07,0,0,1,.32-.46.94.94,0,0,1,.69-.26H417a.85.85,0,0,1,.66.23,2.07,2.07,0,0,1,.29.4l.63,1.49L428.6,101a1.06,1.06,0,0,0,0,.2,1.29,1.29,0,0,1,0,.24q0,.57-.84.57h-3.75a1.09,1.09,0,0,1-.65-.17,1.23,1.23,0,0,1-.38-.53l-.34-.88L422,98.57c-.24-.61-.47-1.23-.7-1.85H409.51c-.33.89-.65,1.73-1,2.51s-.58,1.46-.8,2a1,1,0,0,1-1,.7H403a1.11,1.11,0,0,1-.58-.13.43.43,0,0,1-.22-.4A.65.65,0,0,1,402.17,101.28Zm13.27-20.34q-1,2.63-2.05,5.45c-.68,1.88-1.37,3.69-2.05,5.43h8.12Z"/><path class="cls-1" d="M469.18,87.86a13.62,13.62,0,0,1-.52,3.8A13.76,13.76,0,0,1,465,97.9a14.44,14.44,0,0,1-2.9,2.19,15,15,0,0,1-3.45,1.4,14.7,14.7,0,0,1-3.84.49h-9.16a1.25,1.25,0,0,1-.61-.15.7.7,0,0,1-.26-.65V74.58a.78.78,0,0,1,.87-.9h9.16a14.48,14.48,0,0,1,5.65,1.1,14.14,14.14,0,0,1,4.57,3,14,14,0,0,1,4.18,10.07Zm-18.92-9V96.76h1.81q1.43,0,2.85-.06a9.13,9.13,0,0,0,3.49-.77A8.92,8.92,0,0,0,461.18,94,8.43,8.43,0,0,0,463,91.2a9.44,9.44,0,0,0-.05-7.06,8.47,8.47,0,0,0-2-2.8,8.93,8.93,0,0,0-2.89-1.8,9.87,9.87,0,0,0-3.53-.64Z"/><path class="cls-1" d="M485.44,87.86A14.68,14.68,0,0,1,486,84a14.18,14.18,0,0,1,1.47-3.49,14.45,14.45,0,0,1,2.28-3,14.13,14.13,0,0,1,2.94-2.28,14.92,14.92,0,0,1,3.48-1.47,14.66,14.66,0,0,1,7.74,0,14.84,14.84,0,0,1,3.47,1.47,14.59,14.59,0,0,1,5.24,5.23A15.4,15.4,0,0,1,514,84a14.33,14.33,0,0,1,.53,3.89,14.07,14.07,0,0,1-.53,3.87,15.44,15.44,0,0,1-1.46,3.47,14.13,14.13,0,0,1-2.28,2.94,14.68,14.68,0,0,1-6.43,3.73,15,15,0,0,1-7.76,0,14.92,14.92,0,0,1-3.48-1.47,14.47,14.47,0,0,1-2.94-2.28,14.36,14.36,0,0,1-3.73-6.4A14.59,14.59,0,0,1,485.44,87.86Zm5.5,0a9.31,9.31,0,0,0,.7,3.6,9.07,9.07,0,0,0,1.91,2.92,8.89,8.89,0,0,0,2.85,2,9.07,9.07,0,0,0,7.13,0,9,9,0,0,0,2.87-2,9.51,9.51,0,0,0,1.92-10.1,9.42,9.42,0,0,0-1.92-2.93,9,9,0,0,0-2.87-2,9.19,9.19,0,0,0-7.13,0,8.92,8.92,0,0,0-2.85,2,9.22,9.22,0,0,0-1.91,2.93A9.32,9.32,0,0,0,490.94,87.82Z"/><path class="cls-1" d="M547.85,81.23a.81.81,0,0,1-.45-.13,4.2,4.2,0,0,1-.48-.33l0,0A9.34,9.34,0,0,0,546,80a10.44,10.44,0,0,0-1.28-.82,10.25,10.25,0,0,0-1.51-.65,5.52,5.52,0,0,0-1.65-.26,7.19,7.19,0,0,0-1.89.23,4.36,4.36,0,0,0-1.37.65,2.91,2.91,0,0,0-.84,1,2.58,2.58,0,0,0-.29,1.19,1.88,1.88,0,0,0,.43,1.2,4,4,0,0,0,1.16.91,12.22,12.22,0,0,0,1.69.74c.64.22,1.3.44,2,.65s1.6.51,2.38.78a21,21,0,0,1,2.26,1,15.07,15.07,0,0,1,2,1.16,7.58,7.58,0,0,1,1.61,1.47A6.67,6.67,0,0,1,551.73,91a6.36,6.36,0,0,1,.39,2.29,8.28,8.28,0,0,1-.84,3.76A8.67,8.67,0,0,1,549,99.88a10.84,10.84,0,0,1-3.47,1.83,14.11,14.11,0,0,1-4.28.63,12.59,12.59,0,0,1-2.92-.34,14.31,14.31,0,0,1-2.78-1A14.68,14.68,0,0,1,533,99.51a12.23,12.23,0,0,1-2.13-2v0l0-.07a1.39,1.39,0,0,1-.42-.88.75.75,0,0,1,.12-.4,2.32,2.32,0,0,1,.34-.42l.63-.63c.19-.16.39-.35.61-.55a8.1,8.1,0,0,1,.65-.56,5.86,5.86,0,0,1,.6-.41.87.87,0,0,1,.45-.18.78.78,0,0,1,.49.18,3.34,3.34,0,0,1,.38.32l.08.08h0a13.36,13.36,0,0,0,1.5,1.2,15.61,15.61,0,0,0,1.7,1,11,11,0,0,0,1.75.7,5.75,5.75,0,0,0,1.63.26,6.93,6.93,0,0,0,2-.27,5.14,5.14,0,0,0,1.58-.75,3.76,3.76,0,0,0,1-1.17,3.15,3.15,0,0,0,.38-1.53,2.19,2.19,0,0,0-.5-1.44A4.56,4.56,0,0,0,544.5,91a11.46,11.46,0,0,0-1.8-.77c-.67-.21-1.34-.42-2-.61a31.07,31.07,0,0,1-4.07-1.52,12.65,12.65,0,0,1-2.91-1.84A6.87,6.87,0,0,1,532,84a6.69,6.69,0,0,1-.58-2.85,7,7,0,0,1,2.74-5.72,9.53,9.53,0,0,1,3.16-1.62,13.75,13.75,0,0,1,4.14-.59,12.23,12.23,0,0,1,3.53.55,13.78,13.78,0,0,1,3.31,1.49c.31.19.62.41.94.65a10.87,10.87,0,0,1,.87.74,4.32,4.32,0,0,1,.66.72,1.14,1.14,0,0,1,.26.6,1.06,1.06,0,0,1-.12.47,1.77,1.77,0,0,1-.28.43l-.57.61v0l-.6.63a8.07,8.07,0,0,1-.6.58c-.21.17-.39.31-.56.43A.79.79,0,0,1,547.85,81.23Z"/></g></g></svg>