<svg xmlns="http://www.w3.org/2000/svg" viewBox="0 0 108.02 85.1"><defs><style>.cls-1{fill:none;stroke:#fff;stroke-miterlimit:10;}</style></defs><g id="Capa_2" data-name="Capa 2"><g id="Capa_1-2" data-name="Capa 1"><path class="cls-1" d="M61.38,2.8q.82-.81,1.71-1.56A3.62,3.62,0,0,1,65.47.5a2.79,2.79,0,0,1,1.93.82l1.71,1.56L106.4,40.1a3.28,3.28,0,0,1,1.12,2.3,3.17,3.17,0,0,1-1.12,2.15l-38.85,39a3.22,3.22,0,0,1-2.31,1,2.55,2.55,0,0,1-2.08-1L51,71.67a3.28,3.28,0,0,1-.3-4.9L75.05,42.33,50.68,17.88a5.06,5.06,0,0,1-.89-2.3,3.47,3.47,0,0,1,1.12-2.3Z"/><path class="cls-1" d="M12.16,2.8Q13,2,13.87,1.24A3.64,3.64,0,0,1,16.25.5a2.79,2.79,0,0,1,1.93.82l1.71,1.56L57.18,40.1a3.24,3.24,0,0,1,1.12,2.3,3.13,3.13,0,0,1-1.12,2.15l-38.85,39a3.2,3.2,0,0,1-2.3,1,2.53,2.53,0,0,1-2.08-1L1.76,71.67a3.27,3.27,0,0,1-.29-4.9L25.83,42.33,1.47,17.88a5,5,0,0,1-.9-2.3,3.47,3.47,0,0,1,1.12-2.3Z"/></g></g></svg>