<svg xmlns="http://www.w3.org/2000/svg" viewBox="0 0 28.5 41.47"><defs><style>.cls-1{fill:#80a3c0;}</style></defs><g id="Capa_2" data-name="Capa 2"><g id="Capa_1-2" data-name="Capa 1"><path class="cls-1" d="M5.75,1.14C6,.87,6.3.61,6.59.37A1.77,1.77,0,0,1,7.77,0a1.37,1.37,0,0,1,1,.4l.84.77L28,19.53a1.58,1.58,0,0,1,.55,1.13A1.55,1.55,0,0,1,28,21.73L8.79,41a1.57,1.57,0,0,1-1.13.51,1.26,1.26,0,0,1-1-.51l-6-5.86A1.84,1.84,0,0,1,0,33.82a1.82,1.82,0,0,1,.48-1.14l12-12L.48,8.57A2.38,2.38,0,0,1,0,7.44,1.67,1.67,0,0,1,.59,6.3Z"/></g></g></svg>