<svg xmlns="http://www.w3.org/2000/svg" viewBox="0 0 29.5 42.47"><defs><style>.cls-1{fill:none;stroke:#80a3c0;stroke-miterlimit:10;}</style></defs><g id="Capa_2" data-name="Capa 2"><g id="Capa_1-2" data-name="Capa 1"><path class="cls-1" d="M23.25,40.84c-.27.27-.55.52-.84.77a1.78,1.78,0,0,1-1.17.36,1.41,1.41,0,0,1-1-.4l-.84-.77L1.05,22.45A1.62,1.62,0,0,1,.5,21.31a1.53,1.53,0,0,1,.55-1.06L20.21,1A1.58,1.58,0,0,1,21.35.5a1.25,1.25,0,0,1,1,.51l6,5.86A1.82,1.82,0,0,1,29,8.16a1.8,1.8,0,0,1-.47,1.13l-12,12.06,12,12A2.52,2.52,0,0,1,29,34.54a1.76,1.76,0,0,1-.55,1.13Z"/></g></g></svg>