<svg xmlns="http://www.w3.org/2000/svg" viewBox="0 0 67.99 98.93"><defs><style>.cls-1{fill:#80a3c0;}</style></defs><g id="Capa_2" data-name="Capa 2"><g id="Capa_1-2" data-name="Capa 1"><path class="cls-1" d="M54.27,96.22q-1,1-2,1.83a4.25,4.25,0,0,1-2.8.88,3.33,3.33,0,0,1-2.27-1l-2-1.83L1.31,52.35A3.88,3.88,0,0,1,0,49.64,3.74,3.74,0,0,1,1.31,47.1L47,1.22A3.77,3.77,0,0,1,49.73,0a3,3,0,0,1,2.44,1.22l14.33,14A4.32,4.32,0,0,1,68,18.26,4.33,4.33,0,0,1,66.85,21L38.19,49.72,66.85,78.48a5.7,5.7,0,0,1,1.05,2.71,4,4,0,0,1-1.31,2.7Z"/></g></g></svg>