<svg xmlns="http://www.w3.org/2000/svg" viewBox="0 0 100.63 101.27"><defs><style>.cls-1{fill:#fff;}</style></defs><g id="Capa_2" data-name="Capa 2"><g id="Capa_1-2" data-name="Capa 1"><path class="cls-1" d="M54.11,45.68v-.14s-.07.09-.1.14Z"/><path class="cls-1" d="M93.19,0H7.44A7.35,7.35,0,0,0,0,7.26V94a7.35,7.35,0,0,0,7.44,7.26H93.19A7.35,7.35,0,0,0,100.63,94V7.26A7.35,7.35,0,0,0,93.19,0ZM30.5,84.77H15.3V39H30.5Zm-7.6-52h-.09c-5.1,0-8.4-3.51-8.4-7.9S17.81,17,23,17s8.4,3.41,8.5,7.9S28.2,32.8,22.9,32.8Zm62.41,52H70.11V60.31c0-6.15-2.2-10.34-7.7-10.34a8.32,8.32,0,0,0-7.8,5.56,10.42,10.42,0,0,0-.5,3.71V84.77H38.91s.2-41.44,0-45.73h15.2v6.5c2-3.12,5.61-7.57,13.7-7.57,10,0,17.5,6.54,17.5,20.58Z"/></g></g></svg>