<svg xmlns="http://www.w3.org/2000/svg" viewBox="0 0 95.82 109.03"><defs><style>.cls-1{fill:#fff;}</style></defs><g id="Capa_2" data-name="Capa 2"><g id="Capa_1-2" data-name="Capa 1"><path class="cls-1" d="M95.82,41.94a3.21,3.21,0,0,0-.93-2.25L83.05,27.85V3.19A3.19,3.19,0,0,0,79.85,0H16a3.19,3.19,0,0,0-3.19,3.19V27.85L.94,39.69l0,0A3.2,3.2,0,0,0,0,41.94H0V99.44A9.6,9.6,0,0,0,9.58,109H86.24a9.6,9.6,0,0,0,9.58-9.59V42ZM83.05,36.88,88.11,42,83.05,47ZM19.16,29.17h0V6.39h57.5V29.17h0V53.4L59.36,70.7H36.46L19.16,53.4Zm-6.38,7.71V47L7.71,42ZM6.39,98.12V49.66L30.62,73.89Zm4.52,4.52L36.46,77.08h22.9l25.56,25.56Zm78.52-4.52L65.2,73.89,89.43,49.66Z"/></g></g></svg>