<svg xmlns="http://www.w3.org/2000/svg" viewBox="0 0 102.64 103.28"><defs><style>.cls-1{fill:#fff;}</style></defs><g id="Capa_2" data-name="Capa 2"><g id="Capa_1-2" data-name="Capa 1"><path class="cls-1" d="M51.5,8.4A42.74,42.74,0,1,1,31,88.64L28,87,12.07,91.32l4.35-15.51-1.81-3.08A42.75,42.75,0,0,1,51.5,8.4ZM26.93,96A51.18,51.18,0,1,0,7.37,77L0,103.28Z"/><path class="cls-1" d="M42.72,39.06c-1.14-2.66-4.18-9.61-4.18-9.61S38,28,35.83,28a25.08,25.08,0,0,0-2.77,0s-6.26.91-7.4,10.76C25,44.44,28.71,50.83,32.42,55.7,37.87,62.86,43,67.47,51.15,71.63,55.94,74.07,61.34,76,66,75.84,76.31,75.54,77.25,68,77.25,68a24.8,24.8,0,0,0,.16-2.77,2.7,2.7,0,0,0-1.35-2.77S69.58,59.23,67,58a3,3,0,0,0-4,.84c-.34.26-2.82,3.85-3.72,4.65-1.91,1.69-7.79-2.12-11.54-5A36,36,0,0,1,39.31,49a2.26,2.26,0,0,1,.29-2.66c.84-.86,2.48-2.79,2.75-3.11S43.85,41.72,42.72,39.06Z"/></g></g></svg>